#N canvas 0 22 506 522 10;
#X obj 75 44 udpreceive 11011;
#X obj 75 77 unpackOSC;
#X obj 75 109 routeOSC /mouse;
#X obj 75 141 routeOSC /x /y;
#X obj 70 216 line~;
#X obj 125 215 line~;
#X obj 70 252 osc~;
#X obj 129 249 osc~;
#X obj 81 353 dac~;
#X obj 136 308 *~ 0.1;
#X obj 70 308 *~ 0.1;
#X obj 260 69 loadbang;
#X msg 260 162 \; pd dsp 1;
#X obj 260 103 del 200;
#X floatatom 87 171 5 0 0 0 - - -;
#X floatatom 142 173 5 0 0 0 - - -;
#X connect 0 0 1 0;
#X connect 1 0 2 0;
#X connect 2 0 3 0;
#X connect 3 0 4 0;
#X connect 3 0 14 0;
#X connect 3 1 5 0;
#X connect 3 1 15 0;
#X connect 4 0 6 0;
#X connect 5 0 7 0;
#X connect 6 0 10 0;
#X connect 7 0 9 0;
#X connect 9 0 8 1;
#X connect 10 0 8 0;
#X connect 11 0 13 0;
#X connect 13 0 12 0;
