#N canvas 432 70 651 534 10;
#X obj 70 216 line~;
#X obj 125 215 line~;
#X obj 70 252 osc~;
#X obj 129 249 osc~;
#X obj 189 496 dac~;
#X obj 527 39 loadbang;
#X msg 527 132 \; pd dsp 1;
#X obj 527 73 del 200;
#X obj 423 189 adc~;
#X obj 143 364 *~ 0.01;
#X obj 71 368 *~ 0.01;
#X obj 26 137 r osc_l_frequency;
#X obj 92 160 r osc_r_frequency;
#X floatatom 135 186 5 0 0 0 - - -;
#X floatatom 76 183 5 0 0 0 - - -;
#X text 83 110 oscillators;
#X msg 286 238 \$1 500;
#X text 284 138 variable delay with feedback;
#X obj 415 324 delwrite~ delbuf-l 10000;
#X obj 450 290 delwrite~ delbuf-r 10000;
#X obj 389 439 *~ 0.6;
#X obj 323 378 vd~ delbuf-r 100;
#X obj 289 273 line~;
#X obj 324 438 *~ 0.6;
#X obj 301 354 vd~ delbuf-l 100;
#X obj 266 187 r delay_time_l;
#X obj 286 167 r delay_time_r;
#X msg 351 236 \$1 500;
#X obj 351 268 line~;
#X floatatom 310 211 5 0 0 0 - - -;
#X floatatom 350 211 5 0 0 0 - - -;
#X text 463 201 mic input;
#X text 490 97 setup: turn on dsp;
#X connect 0 0 2 0;
#X connect 1 0 3 0;
#X connect 2 0 10 0;
#X connect 3 0 9 0;
#X connect 5 0 7 0;
#X connect 7 0 6 0;
#X connect 8 0 18 0;
#X connect 8 1 19 0;
#X connect 9 0 4 1;
#X connect 10 0 4 0;
#X connect 11 0 0 0;
#X connect 12 0 1 0;
#X connect 13 0 1 0;
#X connect 14 0 0 0;
#X connect 16 0 22 0;
#X connect 20 0 19 0;
#X connect 21 0 4 1;
#X connect 21 0 20 0;
#X connect 22 0 24 0;
#X connect 23 0 18 0;
#X connect 24 0 4 0;
#X connect 24 0 23 0;
#X connect 25 0 16 0;
#X connect 26 0 27 0;
#X connect 27 0 28 0;
#X connect 28 0 21 0;
#X connect 29 0 16 0;
#X connect 30 0 27 0;
