#N canvas 0 22 506 522 10;
#X declare -lib mrpeach;
#X obj 75 44 udpreceive 11011;
#X obj 75 77 unpackOSC;
#X obj 75 109 routeOSC /mouse;
#X obj 75 141 routeOSC /x /y;
#X obj 70 216 line~;
#X obj 125 215 line~;
#X obj 70 252 osc~;
#X obj 129 249 osc~;
#X obj 103 478 dac~;
#X obj 260 69 loadbang;
#X msg 260 162 \; pd dsp 1;
#X obj 260 103 del 200;
#X floatatom 87 171 5 0 0 0 - - -;
#X floatatom 142 173 5 0 0 0 - - -;
#X obj 251 250 adc~;
#X obj 256 328 delwrite~ delbuf-r 10000;
#X obj 266 307 delwrite~ delbuf-l 10000;
#X obj 211 374 vd~ delbuf-l 100;
#X obj 253 401 vd~ delbuf-r 100;
#X obj 136 368 *~ 0.01;
#X obj 71 368 *~ 0.01;
#X obj 297 476 import mrpeach;
#X connect 0 0 1 0;
#X connect 1 0 2 0;
#X connect 2 0 3 0;
#X connect 3 0 4 0;
#X connect 3 0 12 0;
#X connect 3 1 5 0;
#X connect 3 1 13 0;
#X connect 4 0 6 0;
#X connect 4 0 17 0;
#X connect 5 0 7 0;
#X connect 5 0 18 0;
#X connect 6 0 20 0;
#X connect 7 0 19 0;
#X connect 9 0 11 0;
#X connect 11 0 10 0;
#X connect 14 0 15 0;
#X connect 14 1 16 0;
#X connect 17 0 8 0;
#X connect 18 0 8 1;
#X connect 19 0 8 1;
#X connect 20 0 8 0;
